<?xml version="1.0" encoding="UTF-8" standalone="no"?>
<!DOCTYPE svg PUBLIC "-//W3C//DTD SVG 1.1//EN" "http://www.w3.org/Graphics/SVG/1.1/DTD/svg11.dtd">
<svg xmlns="http://www.w3.org/2000/svg" xmlns:dc="http://purl.org/dc/elements/1.1/" xmlns:xl="http://www.w3.org/1999/xlink" version="1.1" viewBox="2.9769443 -36.5 111.54611 51" width="111.54611" height="51">
  <defs/>
  <g id="Canvas_1" stroke-opacity="1" fill="none" fill-opacity="1" stroke-dasharray="none" stroke="none">
    <title>Canvas 1</title>
    <g id="Canvas_1_Layer_1">
      <title>Layer 1</title>
      <g id="Graphic_3">
        <circle cx="27.565038" cy="-11.911906" r="24.0881320898598" stroke="white" stroke-linecap="butt" stroke-linejoin="round" stroke-width="1"/>
      </g>
      <g id="Graphic_4">
        <circle cx="27.63386" cy="-11.877495" r="24.0881320898598" stroke="white" stroke-linecap="butt" stroke-linejoin="round" stroke-width="1"/>
      </g>
      <g id="Graphic_5">
        <circle cx="27.668273" cy="-11.843083" r="24.0881320898598" stroke="white" stroke-linecap="butt" stroke-linejoin="round" stroke-width="1"/>
      </g>
      <g id="Graphic_6">
        <circle cx="27.737096" cy="-11.808672" r="24.0881320898598" stroke="white" stroke-linecap="butt" stroke-linejoin="round" stroke-width="1"/>
      </g>
      <g id="Graphic_7">
        <circle cx="27.80592" cy="-11.77426" r="24.0881320898598" stroke="white" stroke-linecap="butt" stroke-linejoin="round" stroke-width="1"/>
      </g>
      <g id="Graphic_8">
        <circle cx="27.84033" cy="-11.739849" r="24.0881320898598" stroke="white" stroke-linecap="butt" stroke-linejoin="round" stroke-width="1"/>
      </g>
      <g id="Graphic_9">
        <circle cx="27.909153" cy="-11.705437" r="24.0881320898598" stroke="white" stroke-linecap="butt" stroke-linejoin="round" stroke-width="1"/>
      </g>
      <g id="Graphic_10">
        <circle cx="27.943565" cy="-11.636614" r="24.0881320898598" stroke="white" stroke-linecap="butt" stroke-linejoin="round" stroke-width="1"/>
      </g>
      <g id="Graphic_11">
        <circle cx="28.012388" cy="-11.602202" r="24.0881320898598" stroke="white" stroke-linecap="butt" stroke-linejoin="round" stroke-width="1"/>
      </g>
      <g id="Graphic_12">
        <circle cx="28.08121" cy="-11.567791" r="24.0881320898598" stroke="white" stroke-linecap="butt" stroke-linejoin="round" stroke-width="1"/>
      </g>
      <g id="Graphic_13">
        <circle cx="28.115623" cy="-11.533379" r="24.0881320898598" stroke="white" stroke-linecap="butt" stroke-linejoin="round" stroke-width="1"/>
      </g>
      <g id="Graphic_14">
        <circle cx="28.184446" cy="-11.498968" r="24.0881320898598" stroke="white" stroke-linecap="butt" stroke-linejoin="round" stroke-width="1"/>
      </g>
      <g id="Graphic_15">
        <circle cx="28.218858" cy="-11.464556" r="24.0881320898598" stroke="white" stroke-linecap="butt" stroke-linejoin="round" stroke-width="1"/>
      </g>
      <g id="Graphic_16">
        <circle cx="28.28768" cy="-11.430145" r="24.0881320898598" stroke="white" stroke-linecap="butt" stroke-linejoin="round" stroke-width="1"/>
      </g>
      <g id="Graphic_17">
        <circle cx="28.356504" cy="-11.395733" r="24.0881320898598" stroke="white" stroke-linecap="butt" stroke-linejoin="round" stroke-width="1"/>
      </g>
      <g id="Graphic_18">
        <circle cx="28.390915" cy="-11.361321" r="24.0881320898598" stroke="white" stroke-linecap="butt" stroke-linejoin="round" stroke-width="1"/>
      </g>
      <g id="Graphic_19">
        <circle cx="28.45974" cy="-11.32691" r="24.0881320898598" stroke="white" stroke-linecap="butt" stroke-linejoin="round" stroke-width="1"/>
      </g>
      <g id="Graphic_20">
        <circle cx="28.49415" cy="-11.292498" r="24.0881320898598" stroke="white" stroke-linecap="butt" stroke-linejoin="round" stroke-width="1"/>
      </g>
      <g id="Graphic_21">
        <circle cx="28.562973" cy="-11.258087" r="24.0881320898598" stroke="white" stroke-linecap="butt" stroke-linejoin="round" stroke-width="1"/>
      </g>
      <g id="Graphic_22">
        <circle cx="28.631796" cy="-11.223675" r="24.0881320898598" stroke="white" stroke-linecap="butt" stroke-linejoin="round" stroke-width="1"/>
      </g>
      <g id="Graphic_23">
        <circle cx="28.666208" cy="-11.189264" r="24.0881320898598" stroke="white" stroke-linecap="butt" stroke-linejoin="round" stroke-width="1"/>
      </g>
      <g id="Graphic_24">
        <circle cx="28.73503" cy="-11.154852" r="24.0881320898598" stroke="white" stroke-linecap="butt" stroke-linejoin="round" stroke-width="1"/>
      </g>
      <g id="Graphic_25">
        <circle cx="28.803854" cy="-11.12044" r="24.0881320898598" stroke="white" stroke-linecap="butt" stroke-linejoin="round" stroke-width="1"/>
      </g>
      <g id="Graphic_26">
        <circle cx="28.838266" cy="-11.086029" r="24.0881320898598" stroke="white" stroke-linecap="butt" stroke-linejoin="round" stroke-width="1"/>
      </g>
      <g id="Graphic_27">
        <circle cx="28.90709" cy="-11.051617" r="24.0881320898598" stroke="white" stroke-linecap="butt" stroke-linejoin="round" stroke-width="1"/>
      </g>
      <g id="Graphic_28">
        <circle cx="28.9415" cy="-11.017206" r="24.0881320898598" stroke="white" stroke-linecap="butt" stroke-linejoin="round" stroke-width="1"/>
      </g>
      <g id="Graphic_29">
        <circle cx="29.010323" cy="-10.982794" r="24.0881320898598" stroke="white" stroke-linecap="butt" stroke-linejoin="round" stroke-width="1"/>
      </g>
      <g id="Graphic_30">
        <circle cx="29.079147" cy="-10.948383" r="24.0881320898598" stroke="white" stroke-linecap="butt" stroke-linejoin="round" stroke-width="1"/>
      </g>
      <g id="Graphic_31">
        <circle cx="29.113558" cy="-10.913971" r="24.0881320898598" stroke="white" stroke-linecap="butt" stroke-linejoin="round" stroke-width="1"/>
      </g>
      <g id="Graphic_32">
        <circle cx="29.18238" cy="-10.87956" r="24.0881320898598" stroke="white" stroke-linecap="butt" stroke-linejoin="round" stroke-width="1"/>
      </g>
      <g id="Graphic_33">
        <circle cx="29.216793" cy="-10.845148" r="24.0881320898598" stroke="white" stroke-linecap="butt" stroke-linejoin="round" stroke-width="1"/>
      </g>
      <g id="Graphic_34">
        <circle cx="29.285616" cy="-10.810736" r="24.0881320898598" stroke="white" stroke-linecap="butt" stroke-linejoin="round" stroke-width="1"/>
      </g>
      <g id="Graphic_35">
        <circle cx="29.35444" cy="-10.776325" r="24.0881320898598" stroke="white" stroke-linecap="butt" stroke-linejoin="round" stroke-width="1"/>
      </g>
      <g id="Graphic_36">
        <circle cx="29.38885" cy="-10.741913" r="24.0881320898598" stroke="white" stroke-linecap="butt" stroke-linejoin="round" stroke-width="1"/>
      </g>
      <g id="Graphic_37">
        <circle cx="29.457674" cy="-10.707502" r="24.0881320898598" stroke="white" stroke-linecap="butt" stroke-linejoin="round" stroke-width="1"/>
      </g>
      <g id="Graphic_38">
        <circle cx="29.492085" cy="-10.67309" r="24.0881320898598" stroke="white" stroke-linecap="butt" stroke-linejoin="round" stroke-width="1"/>
      </g>
      <g id="Graphic_39">
        <circle cx="29.56091" cy="-10.604267" r="24.0881320898598" stroke="white" stroke-linecap="butt" stroke-linejoin="round" stroke-width="1"/>
      </g>
      <g id="Graphic_40">
        <circle cx="29.62973" cy="-10.569855" r="24.0881320898598" stroke="white" stroke-linecap="butt" stroke-linejoin="round" stroke-width="1"/>
      </g>
      <g id="Graphic_41">
        <circle cx="29.664143" cy="-10.535444" r="24.0881320898598" stroke="white" stroke-linecap="butt" stroke-linejoin="round" stroke-width="1"/>
      </g>
      <g id="Graphic_42">
        <circle cx="29.732966" cy="-10.501032" r="24.0881320898598" stroke="white" stroke-linecap="butt" stroke-linejoin="round" stroke-width="1"/>
      </g>
      <g id="Graphic_43">
        <circle cx="29.80179" cy="-10.466621" r="24.0881320898598" stroke="white" stroke-linecap="butt" stroke-linejoin="round" stroke-width="1"/>
      </g>
      <g id="Graphic_44">
        <circle cx="29.8362" cy="-10.432209" r="24.0881320898598" stroke="white" stroke-linecap="butt" stroke-linejoin="round" stroke-width="1"/>
      </g>
      <g id="Graphic_45">
        <circle cx="29.905024" cy="-10.397798" r="24.0881320898598" stroke="white" stroke-linecap="butt" stroke-linejoin="round" stroke-width="1"/>
      </g>
      <g id="Graphic_46">
        <circle cx="29.939436" cy="-10.363386" r="24.0881320898598" stroke="white" stroke-linecap="butt" stroke-linejoin="round" stroke-width="1"/>
      </g>
      <g id="Graphic_47">
        <circle cx="30.00826" cy="-10.328975" r="24.0881320898598" stroke="white" stroke-linecap="butt" stroke-linejoin="round" stroke-width="1"/>
      </g>
      <g id="Graphic_48">
        <circle cx="30.077082" cy="-10.294563" r="24.0881320898598" stroke="white" stroke-linecap="butt" stroke-linejoin="round" stroke-width="1"/>
      </g>
      <g id="Graphic_49">
        <circle cx="30.111493" cy="-10.260151" r="24.0881320898598" stroke="white" stroke-linecap="butt" stroke-linejoin="round" stroke-width="1"/>
      </g>
      <g id="Graphic_50">
        <circle cx="30.180317" cy="-10.22574" r="24.0881320898598" stroke="white" stroke-linecap="butt" stroke-linejoin="round" stroke-width="1"/>
      </g>
      <g id="Graphic_51">
        <circle cx="30.214728" cy="-10.191328" r="24.0881320898598" stroke="white" stroke-linecap="butt" stroke-linejoin="round" stroke-width="1"/>
      </g>
      <g id="Graphic_52">
        <circle cx="30.28355" cy="-10.156917" r="24.0881320898598" stroke="white" stroke-linecap="butt" stroke-linejoin="round" stroke-width="1"/>
      </g>
      <g id="Graphic_53">
        <circle cx="30.352374" cy="-10.122505" r="24.0881320898598" stroke="white" stroke-linecap="butt" stroke-linejoin="round" stroke-width="1"/>
      </g>
      <g id="Graphic_54">
        <circle cx="30.386786" cy="-10.088094" r="24.0881320898598" stroke="white" stroke-linecap="butt" stroke-linejoin="round" stroke-width="1"/>
      </g>
      <g id="Graphic_55">
        <path d="M 39.02409 -19.585685 L 44.77082 -19.585685 L 44.77082 -19.0351 L 42.36201 -19.0351 L 36.44322 -.38403304 L 33.621473 -.38403304 L 30.111493 -15.07777 L 26.567103 -.38403304 L 23.538885 -.38403304 L 17.826566 -19.0351 L 16.312457 -19.0351 L 16.312457 -19.585685 L 25.087405 -19.585685 L 25.087405 -19.0351 L 23.263593 -19.0351 L 27.324157 -5.82106 L 29.8362 -16.316586 L 29.18238 -19.0351 L 27.565038 -19.0351 L 27.565038 -19.585685 L 36.339986 -19.585685 L 36.339986 -19.0351 L 34.65382 -19.0351 L 37.578802 -5.5457674 L 41.811425 -19.0351 L 39.0585 -19.0351 L 39.0585 -19.585685 Z" fill="white"/>
      </g>
      <g id="Graphic_56">
        <path d="M 67.6201 -.8657949 L 67.6201 -.28079835 L 60.01514 -.28079835 L 60.01514 -.8657949 L 61.25396 -.8657949 L 61.25396 -13.253957 L 60.01514 -13.253957 L 60.01514 -13.804542 L 66.38128 -13.804542 L 66.38128 -.8313833 L 67.6201 -.8313833 Z M 60.772195 -18.450103 C 60.772195 -20.205093 62.01101 -21.409498 63.80041 -21.44391 C 65.589814 -21.44391 66.82863 -20.205093 66.82863 -18.450103 C 66.82863 -16.695114 65.589814 -15.421886 63.80041 -15.421886 C 62.01101 -15.421886 60.772195 -16.695114 60.772195 -18.450103 Z" fill="white"/>
      </g>
      <g id="Graphic_57">
        <path d="M 93.66965 -9.812801 C 93.66965 -3.205781 88.40468 -.17756366 83.93118 -.17756366 L 74.192705 -.17756366 L 74.192705 -.7625602 L 75.84446 -.7625602 L 75.84446 -18.759807 L 74.192705 -18.759807 L 74.192705 -19.310392 L 83.415 -19.310392 C 88.50791 -19.310392 93.70406 -16.282175 93.70406 -9.77839 Z M 87.88851 -9.812801 C 87.88851 -16.763937 86.27116 -18.725396 83.03648 -18.725396 L 81.07502 -18.725396 L 81.07502 -1.4507915 C 82.03854 -.9002065 82.83001 -.7281487 83.62147 -.7281487 C 86.20234 -.7281487 87.88851 -2.4831383 87.88851 -9.77839 Z" fill="white"/>
      </g>
      <g id="Graphic_58">
        <path d="M 113.93806 -6.26841 L 114.52306 -6.26841 L 114.52306 -.1431521 L 99.20991 -.1431521 L 99.20991 -.7281487 L 100.86167 -.7281487 L 100.86167 -18.725396 L 99.20991 -18.725396 L 99.20991 -19.27598 L 113.93806 -19.27598 L 113.93806 -13.185134 L 113.35306 -13.185134 L 113.35306 -18.725396 L 106.12663 -18.725396 L 106.12663 -10.156917 L 109.84308 -10.156917 L 109.84308 -14.045423 L 110.42808 -14.045423 L 110.42808 -5.6145905 L 109.84308 -5.6145905 L 109.84308 -9.537509 L 106.12663 -9.537509 L 106.12663 -1.2787337 L 107.88162 -.6937371 L 113.90365 -.6937371 L 113.90365 -6.199587 Z" fill="white"/>
      </g>
    </g>
  </g>
</svg>
